HIERARCHY
ROOT hip
{
  OFFSET -0.367513 80.9791 219.358
  CHANNELS 6 Xposition Yposition Zposition Zrotation Xrotation Yrotation
  JOINT abdomen
  {
    OFFSET 0 20.6881 -0.73152
    CHANNELS 3 Zrotation Xrotation Yrotation
    JOINT chest
    {
      OFFSET 0 11.7043 -0.48768
      CHANNELS 3 Zrotation Xrotation Yrotation
      JOINT neck
      {
        OFFSET 0 22.1894 -2.19456
        CHANNELS 3 Zrotation Xrotation Yrotation
        JOINT head
        {
          OFFSET -0.24384 7.07133 1.2192
          CHANNELS 3 Zrotation Xrotation Yrotation
          JOINT leftEye
          {
            OFFSET 4.14528 8.04674 8.04672
            CHANNELS 3 Zrotation Xrotation Yrotation
            End Site
            {
              OFFSET 1 0 0
            }
          }
          JOINT rightEye
          {
            OFFSET -3.6576 8.04674 8.04672
            CHANNELS 3 Zrotation Xrotation Yrotation
            End Site
            {
              OFFSET 1 0 0
            }
          }
        }
      }
      JOINT rCollar
      {
        OFFSET -2.68224 19.2634 -4.8768
        CHANNELS 3 Zrotation Xrotation Yrotation
        JOINT rShldr
        {
          OFFSET -8.77824 -1.95073 1.46304
          CHANNELS 3 Zrotation Xrotation Yrotation
          JOINT rForeArm
          {
            OFFSET -28.1742 -1.7115 0.48768
            CHANNELS 3 Zrotation Xrotation Yrotation
            JOINT rHand
            {
              OFFSET -22.5879 0.773209 7.07136
              CHANNELS 3 Zrotation Xrotation Yrotation
              JOINT rThumb1
              {
                OFFSET -1.2192 -0.487915 3.41376
                CHANNELS 3 Zrotation Xrotation Yrotation
                JOINT rThumb2
                {
                  OFFSET -3.37035 -0.52449 3.41376
                  CHANNELS 3 Zrotation Xrotation Yrotation
                  End Site
                  {
                    OFFSET -1.78271 -1.18214 1.43049
                  }
                }
              }
              JOINT rIndex1
              {
                OFFSET -7.75947 0.938293 5.60832
                CHANNELS 3 Zrotation Xrotation Yrotation
                JOINT rIndex2
                {
                  OFFSET -2.54057 -0.884171 1.56538
                  CHANNELS 3 Zrotation Xrotation Yrotation
                  End Site
                  {
                    OFFSET -1.62519 -0.234802 1.16502
                  }
                }
              }
              JOINT rMid1
              {
                OFFSET -8.24714 1.18213 3.41376
                CHANNELS 3 Zrotation Xrotation Yrotation
                JOINT rMid2
                {
                  OFFSET -3.10165 -0.590103 1.0647
                  CHANNELS 3 Zrotation Xrotation Yrotation
                  End Site
                  {
                    OFFSET -2.48547 -0.328903 0.83742
                  }
                }
              }
              JOINT rRing1
              {
                OFFSET -8.82822 0.546677 1.51678
                CHANNELS 3 Zrotation Xrotation Yrotation
                JOINT rRing2
                {
                  OFFSET -2.60934 -0.819778 -0.0198488
                  CHANNELS 3 Zrotation Xrotation Yrotation
                  End Site
                  {
                    OFFSET -2.33842 -0.294052 0.168128
                  }
                }
              }
              JOINT rPinky1
              {
                OFFSET -8.27202 -0.0477905 -0.4584
                CHANNELS 3 Zrotation Xrotation Yrotation
                JOINT rPinky2
                {
                  OFFSET -1.82734 -0.647385 -0.700984
                  CHANNELS 3 Zrotation Xrotation Yrotation
                  End Site
                  {
                    OFFSET -1.69225 -0.51767 -0.607171
                  }
                }
              }
            }
          }
        }
      }
      JOINT lCollar
      {
        OFFSET 2.68224 19.2634 -4.8768
        CHANNELS 3 Zrotation Xrotation Yrotation
        JOINT lShldr
        {
          OFFSET 8.77824 -1.95073 1.46304
          CHANNELS 3 Zrotation Xrotation Yrotation
          JOINT lForeArm
          {
            OFFSET 28.1742 -1.7115 0.48768
            CHANNELS 3 Zrotation Xrotation Yrotation
            JOINT lHand
            {
              OFFSET 22.5879 0.773209 7.07136
              CHANNELS 3 Zrotation Xrotation Yrotation
              JOINT lThumb1
              {
                OFFSET 1.2192 -0.487915 3.41376
                CHANNELS 3 Zrotation Xrotation Yrotation
                JOINT lThumb2
                {
                  OFFSET 3.37035 -0.52449 3.41376
                  CHANNELS 3 Zrotation Xrotation Yrotation
                  End Site
                  {
                    OFFSET 1.78271 -1.18214 1.43049
                  }
                }
              }
              JOINT lIndex1
              {
                OFFSET 7.75947 0.938293 5.60832
                CHANNELS 3 Zrotation Xrotation Yrotation
                JOINT lIndex2
                {
                  OFFSET 2.54057 -0.884171 1.56538
                  CHANNELS 3 Zrotation Xrotation Yrotation
                  End Site
                  {
                    OFFSET 1.62519 -0.234802 1.16502
                  }
                }
              }
              JOINT lMid1
              {
                OFFSET 8.24714 1.18213 3.41376
                CHANNELS 3 Zrotation Xrotation Yrotation
                JOINT lMid2
                {
                  OFFSET 3.10165 -0.590103 1.0647
                  CHANNELS 3 Zrotation Xrotation Yrotation
                  End Site
                  {
                    OFFSET 2.48547 -0.328903 0.83742
                  }
                }
              }
              JOINT lRing1
              {
                OFFSET 8.82822 0.546677 1.51678
                CHANNELS 3 Zrotation Xrotation Yrotation
                JOINT lRing2
                {
                  OFFSET 2.60934 -0.819778 -0.0198488
                  CHANNELS 3 Zrotation Xrotation Yrotation
                  End Site
                  {
                    OFFSET 2.33842 -0.294052 0.168128
                  }
                }
              }
              JOINT lPinky1
              {
                OFFSET 8.27202 -0.0477905 -0.4584
                CHANNELS 3 Zrotation Xrotation Yrotation
                JOINT lPinky2
                {
                  OFFSET 1.82734 -0.647385 -0.700984
                  CHANNELS 3 Zrotation Xrotation Yrotation
                  End Site
                  {
                    OFFSET 1.69225 -0.51767 -0.607171
                  }
                }
              }
            }
          }
        }
      }
    }
  }
  JOINT rButtock
  {
    OFFSET -8.77824 4.35084 1.2192
    CHANNELS 3 Zrotation Xrotation Yrotation
    JOINT rThigh
    {
      OFFSET 0 -1.70687 -2.19456
      CHANNELS 3 Zrotation Xrotation Yrotation
      JOINT rShin
      {
        OFFSET 0 -36.8199 0.73152
        CHANNELS 3 Zrotation Xrotation Yrotation
        JOINT rFoot
        {
          OFFSET 0.73152 -45.1104 -5.12064
          CHANNELS 3 Zrotation Xrotation Yrotation
          End Site
          {
            OFFSET -1.1221 -3.69964 12.103
          }
        }
      }
    }
  }
  JOINT lButtock
  {
    OFFSET 8.77824 4.35084 1.2192
    CHANNELS 3 Zrotation Xrotation Yrotation
    JOINT lThigh
    {
      OFFSET 0 -1.70687 -2.19456
      CHANNELS 3 Zrotation Xrotation Yrotation
      JOINT lShin
      {
        OFFSET 0 -36.8199 0.73152
        CHANNELS 3 Zrotation Xrotation Yrotation
        JOINT lFoot
        {
          OFFSET -0.73152 -45.1104 -5.12064
          CHANNELS 3 Zrotation Xrotation Yrotation
          End Site
          {
            OFFSET 1.1221 -3.69964 12.103
          }
        }
      }
    }
  }
}
MOTION
Frames:	4
Frame Time:	0.00833333
6.74133 83.9958 -143.642 1.29231 0.00371661 -0.0243 -1.70022 -0.00276352 -0.0463329 -0.469052 0.00196669 -0.0812256 1.19131e-014 7.95139e-016 -1.98785e-016 3.58713e-014 3.18055e-015 -6.74004e-016 -0 0 0 -0 0 0 6.01248e-015 6.42556e-017 -4.96962e-017 1.26419e-013 9.81499e-016 -1.19271e-015 2.16079e-012 -5.98143e-013 -4.13472e-014 2.46662e-011 8.7838e-013 -4.77083e-013 5.81935e-011 6.12487e-013 -1.11956e-012 1.00496e-010 1.05594e-012 -1.94332e-012 5.81962e-011 6.12257e-013 -1.1291e-012 7.73091 5.47488 0.417314 5.8193e-011 6.12257e-013 -1.12274e-012 2.90554 0.965183 0.102902 5.81984e-011 6.12157e-013 -1.12592e-012 10.2786 0.731801 0.0259123 5.81882e-011 6.16232e-013 -1.12274e-012 2.22167 -0.733487 -0.20892 5.915e-015 6.44497e-017 -2.48481e-016 1.22933e-013 1.09953e-015 -2.78299e-015 2.14747e-012 6.90777e-013 -7.95139e-014 2.46626e-011 -4.01222e-013 -4.42097e-013 5.81677e-011 6.29305e-013 -1.13546e-012 1.00458e-010 1.08457e-012 -1.95127e-012 5.81624e-011 6.2975e-013 -1.12592e-012 -7.73091 5.47488 -0.417314 5.8167e-011 6.29253e-013 -1.14182e-012 -2.90554 0.965183 -0.102902 5.81571e-011 6.2965e-013 -1.1291e-012 -10.2786 0.731801 -0.0259123 5.81713e-011 6.28557e-013 -1.13546e-012 -2.22167 -0.733487 0.20892 -2.03217e-016 0 -3.88251e-019 -0.815224 -1.92421 -0.00353304 -0.00895477 -2.0786 -0.0737764 -0.474557 3.99777 0.134762 2.03217e-016 0 3.88251e-019 -1.77356 -6.84759 0.169531 -0.0032668 6.83969 -0.0864358 0.504683 0.00294859 -0.0573534 
6.08563 82.4087 -144.028 1.10136 -0.641486 -1.25279 -1.49023 3.07089 1.13982 -0.493106 -1.53339 0.181742 -0.453583 -0.198328 -0.894114 0.345681 -0.232138 -1.63203 -0 0 0 -0 0 0 -6.97899e-015 -2.33028e-016 8.64519e-015 22.3509 1.77985 2.2141 -5.05286 -2.49007 7.67025 0.000244123 -0.368777 -0.0518249 7.55111e-011 3.15556e-011 3.01109e-011 1.30527e-010 5.47211e-011 5.19324e-011 7.55168e-011 3.15539e-011 3.00997e-011 7.73091 5.47488 0.417314 7.55101e-011 3.15557e-011 3.01069e-011 2.90554 0.965183 0.102902 7.55177e-011 3.1556e-011 3.01065e-011 10.2786 0.731801 0.0259123 7.55059e-011 3.15595e-011 3.01106e-011 2.22167 -0.733487 -0.20892 -7.09558e-015 -2.32839e-016 8.39089e-015 -21.8285 4.96334 1.43043 2.82124 -1.09082 -4.59235 -0.00735882 -1.90509 0.26721 1.69311e-011 -4.92546e-011 -4.53261e-011 2.88672e-011 -8.51146e-011 -7.86056e-011 1.69256e-011 -4.92542e-011 -4.53164e-011 -7.73091 5.47488 -0.417314 1.69307e-011 -4.92558e-011 -4.53308e-011 -2.90554 0.965183 -0.102902 1.69195e-011 -4.92556e-011 -4.53224e-011 -10.2786 0.731801 -0.0259123 1.69349e-011 -4.92562e-011 -4.53277e-011 -2.22167 -0.733487 0.20892 -2.03217e-016 0 -3.88251e-019 0.0877022 -4.44144 0.51207 -0.0979716 15.0931 0.103945 -0.402349 8.06603 -1.05104 2.03217e-016 0 3.88251e-019 -2.07585 -11.6734 -0.848716 0.0792585 13.1529 0.0395588 0.353683 -0.947709 -2.01409 
6.26941 82.3983 -143.106 0.856188 -1.31536 -2.55988 -1.39224 6.30481 2.41117 -0.503697 -3.16206 0.462631 -0.947324 -0.393003 -1.8399 0.706769 -0.474981 -3.35649 -0 0 0 -0 0 0 -2.1049e-014 -1.21341e-016 1.91361e-014 45.8215 3.67573 4.56463 -9.69005 -4.98451 15.8459 -0.000251015 -0.773153 -0.10866 8.25686e-011 9.74251e-011 5.14321e-011 1.42796e-010 1.68849e-010 8.86746e-011 8.25776e-011 9.74218e-011 5.14194e-011 7.73091 5.47488 0.417314 8.2567e-011 9.74255e-011 5.14274e-011 2.90554 0.965183 0.102902 8.25772e-011 9.74263e-011 5.143e-011 10.2786 0.731801 0.0259123 8.25634e-011 9.74291e-011 5.14351e-011 2.22167 -0.733487 -0.20892 -2.11879e-014 -1.21159e-016 1.88224e-014 -45.1896 10.1722 3.00879 5.60888 -2.21762 -9.44376 0.0042571 -3.92912 0.55211 -3.33157e-011 -1.02194e-010 -6.77929e-011 -5.84167e-011 -1.76645e-010 -1.17722e-010 -3.33216e-011 -1.02194e-010 -6.77832e-011 -7.73091 5.47488 -0.417314 -3.33158e-011 -1.02196e-010 -6.77959e-011 -2.90554 0.965183 -0.102902 -3.33286e-011 -1.02196e-010 -6.77921e-011 -10.2786 0.731801 -0.0259123 -3.33118e-011 -1.02196e-010 -6.77963e-011 -2.22167 -0.733487 0.20892 -2.03217e-016 0 -3.88251e-019 1.1116 -7.03207 1.08526 -0.324881 33.1658 0.337761 -0.137467 12.4214 -2.31457 2.03217e-016 0 3.88251e-019 -2.56576 -16.8088 -1.96523 0.13523 19.8216 0.18204 0.123519 -1.92259 -4.0928 
6.44142 82.4563 -142.153 0.636486 -1.9283 -3.71165 -1.45598 9.20259 3.55301 -0.498825 -4.60377 0.709772 -1.37931 -0.594405 -2.68247 0.997421 -0.694154 -4.89642 -0 0 0 -0 0 0 -3.29619e-014 -8.27596e-016 2.6035e-014 66.6396 5.30759 6.66782 -13.206 -6.93587 23.1682 -0.00126933 -1.10633 -0.1555 1.10146e-010 9.34419e-011 9.25717e-011 1.9059e-010 1.62051e-010 1.59684e-010 1.10158e-010 9.34373e-011 9.25574e-011 7.73091 5.47488 0.417314 1.10144e-010 9.34426e-011 9.25662e-011 2.90554 0.965183 0.102902 1.10156e-010 9.34437e-011 9.25713e-011 10.2786 0.731801 0.0259123 1.10141e-010 9.34459e-011 9.25773e-011 2.22167 -0.733487 -0.20892 -3.31167e-014 -8.27415e-016 2.56696e-014 -66.25 14.8523 4.42325 7.94407 -3.18848 -13.7963 0.0314568 -5.71476 0.805188 -6.5542e-011 -1.49022e-010 -1.33707e-010 -1.14314e-010 -2.57513e-010 -2.31914e-010 -6.55481e-011 -1.49022e-010 -1.33698e-010 -7.73091 5.47488 -0.417314 -6.55418e-011 -1.49026e-010 -1.33709e-010 -2.90554 0.965183 -0.102902 -6.55558e-011 -1.49026e-010 -1.33709e-010 -10.2786 0.731801 -0.0259123 -6.5538e-011 -1.49026e-010 -1.33712e-010 -2.22167 -0.733487 0.20892 -2.03217e-016 0 -3.88251e-019 2.03115 -9.47297 1.55994 -0.72413 49.4346 0.689726 0.265664 16.1774 -3.53076 2.03217e-016 0 3.88251e-019 -3.22929 -21.3015 -3.03784 0.153191 25.7788 0.318946 -0.142936 -2.83553 -5.93404 
